<svg width="25" height="25" viewBox="0 0 25 25" fill="none" xmlns="http://www.w3.org/2000/svg">
<path fill-rule="evenodd" clip-rule="evenodd" d="M16.2611 2.81305C16.2981 3.29705 16.3971 4.60305 15.1881 6.03705C14.3131 7.06005 13.2511 7.65805 12.0851 7.56905C11.9871 6.33605 12.4471 5.24205 13.2281 4.35905C13.9381 3.53205 15.1841 2.86305 16.2601 2.80005L16.2611 2.81305ZM19.9481 9.58305C18.4481 10.493 17.7071 11.73 17.7161 13.369V13.381C17.7091 13.598 17.6391 16.139 20.4711 17.472C19.9261 19.115 18.0591 22.768 15.8891 22.799C15.2821 22.799 14.7951 22.611 14.2941 22.418C13.7601 22.212 13.2101 22 12.4781 22C11.6861 22 11.0901 22.226 10.5311 22.438C10.0571 22.618 9.61106 22.7871 9.09406 22.799C6.94106 22.866 4.87906 18.848 4.30706 17.209C3.87806 15.962 3.66406 14.753 3.66406 13.583C3.66406 9.62305 6.31206 7.67605 8.80406 7.63605C9.49406 7.63605 10.2941 7.92405 10.9761 8.17105C11.4851 8.35505 11.9291 8.51505 12.2151 8.51505C12.4451 8.51505 12.8231 8.37505 13.2861 8.20505C14.0931 7.90605 15.1591 7.51205 16.1661 7.59105C17.8411 7.72105 19.1091 8.38105 19.9481 9.58205V9.58305Z" fill="black"/>
</svg>
