<svg width="25" height="25" viewBox="0 0 25 25" fill="none" xmlns="http://www.w3.org/2000/svg">
<path d="M22.1307 10.8415H21.3252V10.8H12.3252V14.8H17.9767C17.1522 17.1285 14.9367 18.8 12.3252 18.8C9.0117 18.8 6.3252 16.1135 6.3252 12.8C6.3252 9.48655 9.0117 6.80005 12.3252 6.80005C13.8547 6.80005 15.2462 7.37705 16.3057 8.31955L19.1342 5.49105C17.3482 3.82655 14.9592 2.80005 12.3252 2.80005C6.8027 2.80005 2.3252 7.27755 2.3252 12.8C2.3252 18.3225 6.8027 22.8 12.3252 22.8C17.8477 22.8 22.3252 18.3225 22.3252 12.8C22.3252 12.1295 22.2562 11.475 22.1307 10.8415Z" fill="#FFC107"/>
<path d="M3.47803 8.14555L6.76353 10.555C7.65253 8.35405 9.80553 6.80005 12.325 6.80005C13.8545 6.80005 15.246 7.37705 16.3055 8.31955L19.134 5.49105C17.348 3.82655 14.959 2.80005 12.325 2.80005C8.48403 2.80005 5.15303 4.96855 3.47803 8.14555Z" fill="#FF3D00"/>
<path d="M12.3254 22.8C14.9084 22.8 17.2554 21.8115 19.0299 20.204L15.9349 17.585C14.8972 18.3742 13.6291 18.801 12.3254 18.8C9.72435 18.8 7.51585 17.1415 6.68385 14.827L3.42285 17.3395C5.07785 20.578 8.43885 22.8 12.3254 22.8Z" fill="#4CAF50"/>
<path d="M22.1307 10.8415H21.3252V10.8H12.3252V14.8H17.9767C17.5823 15.9082 16.8719 16.8766 15.9332 17.5855L15.9347 17.5845L19.0297 20.2035C18.8107 20.4025 22.3252 17.8 22.3252 12.8C22.3252 12.1295 22.2562 11.475 22.1307 10.8415Z" fill="#1976D2"/>
</svg>
