<svg width="32" height="25" viewBox="0 0 32 25" fill="none" xmlns="http://www.w3.org/2000/svg">
<path d="M0 4.29688C0 3.64746 0.746373 3.125 1.67411 3.125H29.5759C30.5036 3.125 31.25 3.64746 31.25 4.29688C31.25 4.94629 30.5036 5.46875 29.5759 5.46875H1.67411C0.746373 5.46875 0 4.94629 0 4.29688ZM0 12.1094C0 11.46 0.746373 10.9375 1.67411 10.9375H29.5759C30.5036 10.9375 31.25 11.46 31.25 12.1094C31.25 12.7588 30.5036 13.2812 29.5759 13.2812H1.67411C0.746373 13.2812 0 12.7588 0 12.1094ZM31.25 19.9219C31.25 20.5713 30.5036 21.0938 29.5759 21.0938H1.67411C0.746373 21.0938 0 20.5713 0 19.9219C0 19.2725 0.746373 18.75 1.67411 18.75H29.5759C30.5036 18.75 31.25 19.2725 31.25 19.9219Z" fill="white"/>
</svg>
