<svg
                width="20"
                height="20"
                viewBox="0 0 30 36"
                fill="none"
                xmlns="http://www.w3.org/2000/svg"
              >
                <path
                  d="M14.9053 18.4067C16.6761 18.4067 18.4072 17.8817 19.8795 16.8978C21.352 15.9141 22.4996 14.5158 23.1772 12.8798C23.8549 11.2436 24.0321 9.44344 23.6868 7.70667C23.3412 5.96989 22.4886 4.37455 21.2364 3.12238C19.9842 1.87023 18.3888 1.0175 16.652 0.672044C14.9152 0.326567 13.1151 0.503886 11.4791 1.18155C9.84309 1.85921 8.44475 3.00677 7.46085 4.47915C6.47711 5.95153 5.95196 7.68254 5.95196 9.45337C5.95196 11.828 6.89533 14.1053 8.57438 15.7845C10.2534 17.4635 12.5308 18.4067 14.9053 18.4067ZM19.789 22.4765C19.5441 22.4784 19.3008 22.5161 19.0666 22.5883C16.3715 23.5245 13.4393 23.5245 10.744 22.5883C10.51 22.5161 10.2667 22.4784 10.0216 22.4765C5.6569 22.4765 1.91276 24.9591 0 28.5607C6.92561 36.7927 19.2131 37.852 27.4451 30.9262C28.2999 30.2067 29.0912 29.4154 29.8106 28.5607C27.8979 24.9591 24.1537 22.4765 19.789 22.4765Z"
                  fill="white"
                />
              </svg>