<svg
                width="20"
                height="20"
                viewBox="0 0 35 35"
                fill="none"
                xmlns="http://www.w3.org/2000/svg"
              >
                <path
                  d="M34.2708 31.8046L24.0479 21.5817C25.6956 19.318 26.582 16.5896 26.5796 13.7898C26.5796 6.46167 20.6179 0.5 13.2898 0.5C5.96167 0.5 0 6.46167 0 13.7898C0 21.1179 5.96167 27.0796 13.2898 27.0796C16.0895 27.0824 18.8178 26.1965 21.0817 24.5494L31.3046 34.7708L34.2708 31.8046ZM13.2898 22.8825C11.491 22.8828 9.73255 22.3496 8.2368 21.3505C6.74104 20.3513 5.5752 18.931 4.8867 17.2692C4.1982 15.6074 4.01798 13.7787 4.36884 12.0145C4.71969 10.2503 5.58586 8.62972 6.85779 7.35779C8.12972 6.08586 9.75028 5.21969 11.5145 4.86884C13.2787 4.51798 15.1074 4.6982 16.7692 5.3867C18.431 6.0752 19.8513 7.24104 20.8505 8.7368C21.8496 10.2325 22.3828 11.991 22.3825 13.7898C22.3794 16.2004 21.4204 18.5114 19.7159 20.2159C18.0114 21.9204 15.7004 22.8794 13.2898 22.8825Z"
                  fill="white"
                />
              </svg>