<svg width="12" height="12" viewBox="0 0 12 12" fill="none" xmlns="http://www.w3.org/2000/svg">
<g clip-path="url(#clip0_62_8637)">
<path d="M7.7846 6L11.824 1.96056C12.0577 1.72694 12.0577 1.34782 11.824 1.11383L10.8854 0.175216C10.6518 -0.0584053 10.2727 -0.0584053 10.0387 0.175216L5.99963 4.21503L1.96019 0.175591C1.72657 -0.0580303 1.34745 -0.0580303 1.11345 0.175591L0.175216 1.11383C-0.0584053 1.34745 -0.0584053 1.72657 0.175216 1.96056L4.21465 6L0.175216 10.0394C-0.0584053 10.2731 -0.0584053 10.6522 0.175216 10.8862L1.11383 11.8248C1.34745 12.0584 1.72657 12.0584 1.96056 11.8248L5.99963 7.78497L10.0391 11.8244C10.2727 12.058 10.6518 12.058 10.8858 11.8244L11.8244 10.8858C12.058 10.6522 12.058 10.2731 11.8244 10.0391L7.7846 6Z" fill="#4B5563"/>
</g>
<defs>
<clipPath id="clip0_62_8637">
<rect width="12" height="12" fill="white"/>
</clipPath>
</defs>
</svg>
